# xmcd
#
# Track frame offsets: 
#        150
#        17087
#        33555
#        51401
#        69719
#        87191
#        99471
#        115986
#        130366
#        148551
#        160686
#        176151
#
# Disc length: 2610 seconds
#
# Revision: 0
# Processed by: cddbd v1.5.2PL0 Copyright (c) Steve Scherf et al.
# Submitted via: ExactAudioCopy v1.3
#
DISCID=a80a300c
DTITLE=Clay Walker - Fall
DYEAR=2007
DGENRE=Country
TTITLE0=Fore She Was Mama
TTITLE1=Fall
TTITLE2=Workin' Man
TTITLE3=Miami and Me
TTITLE4=She Likes It in the Morning
TTITLE5=Mexico
TTITLE6=You're My Witness
TTITLE7=Average Joe
TTITLE8=It Ain't Pretty
TTITLE9=Before the Next Teardrop Falls
TTITLE10=Love to Be Your Last
TTITLE11=I Hate Nights Like This
EXTD=
EXTT0=
EXTT1=
EXTT2=
EXTT3=
EXTT4=
EXTT5=
EXTT6=
EXTT7=
EXTT8=
EXTT9=
EXTT10=
EXTT11=
PLAYORDER=
